<mxfile host="65bd71144e">
    <diagram id="iT8Jhx6JNnNjKAOXnCO7" name="Page-1">
        <mxGraphModel dx="1590" dy="1113" grid="1" gridSize="10" guides="1" tooltips="1" connect="1" arrows="1" fold="1" page="1" pageScale="1" pageWidth="850" pageHeight="1100" math="0" shadow="0">
            <root>
                <mxCell id="0"/>
                <mxCell id="1" parent="0"/>
                <mxCell id="2" value="A" style="shape=process;whiteSpace=wrap;html=1;backgroundOutline=1;size=0.25;" vertex="1" parent="1">
                    <mxGeometry x="60" y="120" width="80" height="60" as="geometry"/>
                </mxCell>
                <mxCell id="3" value="" style="rounded=0;whiteSpace=wrap;html=1;" vertex="1" parent="1">
                    <mxGeometry x="20" y="120" width="20" height="60" as="geometry"/>
                </mxCell>
                <mxCell id="4" value="B" style="shape=process;whiteSpace=wrap;html=1;backgroundOutline=1;size=0.25;" vertex="1" parent="1">
                    <mxGeometry x="160" y="120" width="80" height="60" as="geometry"/>
                </mxCell>
                <mxCell id="5" value="C" style="shape=process;whiteSpace=wrap;html=1;backgroundOutline=1;size=0.25;" vertex="1" parent="1">
                    <mxGeometry x="260" y="120" width="80" height="60" as="geometry"/>
                </mxCell>
                <mxCell id="6" value="" style="rounded=0;whiteSpace=wrap;html=1;" vertex="1" parent="1">
                    <mxGeometry x="360" y="120" width="20" height="60" as="geometry"/>
                </mxCell>
                <mxCell id="7" value="A" style="shape=process;whiteSpace=wrap;html=1;backgroundOutline=1;size=0.25;" vertex="1" parent="1">
                    <mxGeometry x="60" y="200" width="80" height="60" as="geometry"/>
                </mxCell>
                <mxCell id="8" value="" style="rounded=0;whiteSpace=wrap;html=1;" vertex="1" parent="1">
                    <mxGeometry x="20" y="200" width="20" height="60" as="geometry"/>
                </mxCell>
                <mxCell id="9" value="B" style="shape=process;whiteSpace=wrap;html=1;backgroundOutline=1;size=0.25;" vertex="1" parent="1">
                    <mxGeometry x="160" y="200" width="80" height="60" as="geometry"/>
                </mxCell>
                <mxCell id="10" value="C" style="shape=process;whiteSpace=wrap;html=1;backgroundOutline=1;size=0.25;" vertex="1" parent="1">
                    <mxGeometry x="360" y="200" width="80" height="60" as="geometry"/>
                </mxCell>
                <mxCell id="11" value="" style="rounded=0;whiteSpace=wrap;html=1;" vertex="1" parent="1">
                    <mxGeometry x="460" y="200" width="20" height="60" as="geometry"/>
                </mxCell>
                <mxCell id="12" value="D" style="shape=process;whiteSpace=wrap;html=1;backgroundOutline=1;size=0.25;" vertex="1" parent="1">
                    <mxGeometry x="260" y="200" width="80" height="60" as="geometry"/>
                </mxCell>
                <mxCell id="13" value="A" style="shape=process;whiteSpace=wrap;html=1;backgroundOutline=1;size=0.25;" vertex="1" parent="1">
                    <mxGeometry x="60" y="280" width="80" height="60" as="geometry"/>
                </mxCell>
                <mxCell id="14" value="" style="rounded=0;whiteSpace=wrap;html=1;" vertex="1" parent="1">
                    <mxGeometry x="20" y="280" width="20" height="60" as="geometry"/>
                </mxCell>
                <mxCell id="15" value="B" style="shape=process;whiteSpace=wrap;html=1;backgroundOutline=1;size=0.25;" vertex="1" parent="1">
                    <mxGeometry x="160" y="280" width="80" height="60" as="geometry"/>
                </mxCell>
                <mxCell id="16" value="C" style="shape=process;whiteSpace=wrap;html=1;backgroundOutline=1;size=0.25;" vertex="1" parent="1">
                    <mxGeometry x="360" y="280" width="80" height="60" as="geometry"/>
                </mxCell>
                <mxCell id="17" value="" style="rounded=0;whiteSpace=wrap;html=1;" vertex="1" parent="1">
                    <mxGeometry x="560" y="280" width="20" height="60" as="geometry"/>
                </mxCell>
                <mxCell id="18" value="D" style="shape=process;whiteSpace=wrap;html=1;backgroundOutline=1;size=0.25;" vertex="1" parent="1">
                    <mxGeometry x="260" y="280" width="80" height="60" as="geometry"/>
                </mxCell>
                <mxCell id="20" value="A" style="shape=process;whiteSpace=wrap;html=1;backgroundOutline=1;size=0.25;" vertex="1" parent="1">
                    <mxGeometry x="60" y="360" width="80" height="60" as="geometry"/>
                </mxCell>
                <mxCell id="21" value="" style="rounded=0;whiteSpace=wrap;html=1;" vertex="1" parent="1">
                    <mxGeometry x="20" y="360" width="20" height="60" as="geometry"/>
                </mxCell>
                <mxCell id="22" value="B" style="shape=process;whiteSpace=wrap;html=1;backgroundOutline=1;size=0.25;" vertex="1" parent="1">
                    <mxGeometry x="160" y="360" width="80" height="60" as="geometry"/>
                </mxCell>
                <mxCell id="23" value="C" style="shape=process;whiteSpace=wrap;html=1;backgroundOutline=1;size=0.25;" vertex="1" parent="1">
                    <mxGeometry x="560" y="360" width="80" height="60" as="geometry"/>
                </mxCell>
                <mxCell id="24" value="" style="rounded=0;whiteSpace=wrap;html=1;" vertex="1" parent="1">
                    <mxGeometry x="760" y="360" width="20" height="60" as="geometry"/>
                </mxCell>
                <mxCell id="25" value="D" style="shape=process;whiteSpace=wrap;html=1;backgroundOutline=1;size=0.25;" vertex="1" parent="1">
                    <mxGeometry x="260" y="360" width="80" height="60" as="geometry"/>
                </mxCell>
                <mxCell id="26" value="F" style="shape=process;whiteSpace=wrap;html=1;backgroundOutline=1;size=0.25;" vertex="1" parent="1">
                    <mxGeometry x="460" y="360" width="80" height="60" as="geometry"/>
                </mxCell>
                <mxCell id="27" value="G" style="shape=process;whiteSpace=wrap;html=1;backgroundOutline=1;size=0.25;" vertex="1" parent="1">
                    <mxGeometry x="360" y="360" width="80" height="60" as="geometry"/>
                </mxCell>
                <mxCell id="28" value="A" style="shape=process;whiteSpace=wrap;html=1;backgroundOutline=1;size=0.25;" vertex="1" parent="1">
                    <mxGeometry x="160" y="440" width="80" height="60" as="geometry"/>
                </mxCell>
                <mxCell id="29" value="" style="rounded=0;whiteSpace=wrap;html=1;" vertex="1" parent="1">
                    <mxGeometry x="20" y="440" width="20" height="60" as="geometry"/>
                </mxCell>
                <mxCell id="30" value="B" style="shape=process;whiteSpace=wrap;html=1;backgroundOutline=1;size=0.25;" vertex="1" parent="1">
                    <mxGeometry x="260" y="440" width="80" height="60" as="geometry"/>
                </mxCell>
                <mxCell id="31" value="E" style="shape=process;whiteSpace=wrap;html=1;backgroundOutline=1;size=0.25;" vertex="1" parent="1">
                    <mxGeometry x="760" y="440" width="80" height="60" as="geometry"/>
                </mxCell>
                <mxCell id="32" value="" style="rounded=0;whiteSpace=wrap;html=1;" vertex="1" parent="1">
                    <mxGeometry x="860" y="440" width="20" height="60" as="geometry"/>
                </mxCell>
                <mxCell id="33" value="D" style="shape=process;whiteSpace=wrap;html=1;backgroundOutline=1;size=0.25;" vertex="1" parent="1">
                    <mxGeometry x="360" y="440" width="80" height="60" as="geometry"/>
                </mxCell>
                <mxCell id="34" value="F" style="shape=process;whiteSpace=wrap;html=1;backgroundOutline=1;size=0.25;" vertex="1" parent="1">
                    <mxGeometry x="560" y="440" width="80" height="60" as="geometry"/>
                </mxCell>
                <mxCell id="35" value="G" style="shape=process;whiteSpace=wrap;html=1;backgroundOutline=1;size=0.25;" vertex="1" parent="1">
                    <mxGeometry x="460" y="440" width="80" height="60" as="geometry"/>
                </mxCell>
                <mxCell id="36" value="H" style="shape=process;whiteSpace=wrap;html=1;backgroundOutline=1;size=0.25;" vertex="1" parent="1">
                    <mxGeometry x="60" y="440" width="80" height="60" as="geometry"/>
                </mxCell>
                <mxCell id="37" value="E" style="shape=process;whiteSpace=wrap;html=1;backgroundOutline=1;size=0.25;" vertex="1" parent="1">
                    <mxGeometry x="460" y="280" width="80" height="60" as="geometry"/>
                </mxCell>
                <mxCell id="38" value="E" style="shape=process;whiteSpace=wrap;html=1;backgroundOutline=1;size=0.25;" vertex="1" parent="1">
                    <mxGeometry x="660" y="360" width="80" height="60" as="geometry"/>
                </mxCell>
                <mxCell id="39" value="C" style="shape=process;whiteSpace=wrap;html=1;backgroundOutline=1;size=0.25;" vertex="1" parent="1">
                    <mxGeometry x="660" y="440" width="80" height="60" as="geometry"/>
                </mxCell>
                <mxCell id="40" value="A" style="shape=process;whiteSpace=wrap;html=1;backgroundOutline=1;size=0.25;" vertex="1" parent="1">
                    <mxGeometry x="260" y="520" width="80" height="60" as="geometry"/>
                </mxCell>
                <mxCell id="41" value="" style="rounded=0;whiteSpace=wrap;html=1;" vertex="1" parent="1">
                    <mxGeometry x="20" y="520" width="20" height="60" as="geometry"/>
                </mxCell>
                <mxCell id="42" value="B" style="shape=process;whiteSpace=wrap;html=1;backgroundOutline=1;size=0.25;" vertex="1" parent="1">
                    <mxGeometry x="360" y="520" width="80" height="60" as="geometry"/>
                </mxCell>
                <mxCell id="43" value="E" style="shape=process;whiteSpace=wrap;html=1;backgroundOutline=1;size=0.25;" vertex="1" parent="1">
                    <mxGeometry x="860" y="520" width="80" height="60" as="geometry"/>
                </mxCell>
                <mxCell id="44" value="" style="rounded=0;whiteSpace=wrap;html=1;" vertex="1" parent="1">
                    <mxGeometry x="960" y="520" width="20" height="60" as="geometry"/>
                </mxCell>
                <mxCell id="45" value="D" style="shape=process;whiteSpace=wrap;html=1;backgroundOutline=1;size=0.25;" vertex="1" parent="1">
                    <mxGeometry x="460" y="520" width="80" height="60" as="geometry"/>
                </mxCell>
                <mxCell id="46" value="F" style="shape=process;whiteSpace=wrap;html=1;backgroundOutline=1;size=0.25;" vertex="1" parent="1">
                    <mxGeometry x="660" y="520" width="80" height="60" as="geometry"/>
                </mxCell>
                <mxCell id="47" value="G" style="shape=process;whiteSpace=wrap;html=1;backgroundOutline=1;size=0.25;" vertex="1" parent="1">
                    <mxGeometry x="560" y="520" width="80" height="60" as="geometry"/>
                </mxCell>
                <mxCell id="48" value="H" style="shape=process;whiteSpace=wrap;html=1;backgroundOutline=1;size=0.25;" vertex="1" parent="1">
                    <mxGeometry x="60" y="520" width="80" height="60" as="geometry"/>
                </mxCell>
                <mxCell id="49" value="C" style="shape=process;whiteSpace=wrap;html=1;backgroundOutline=1;size=0.25;" vertex="1" parent="1">
                    <mxGeometry x="760" y="520" width="80" height="60" as="geometry"/>
                </mxCell>
                <mxCell id="50" value="I" style="shape=process;whiteSpace=wrap;html=1;backgroundOutline=1;size=0.25;" vertex="1" parent="1">
                    <mxGeometry x="160" y="520" width="80" height="60" as="geometry"/>
                </mxCell>
                <mxCell id="51" value="A" style="shape=process;whiteSpace=wrap;html=1;backgroundOutline=1;size=0.25;" vertex="1" parent="1">
                    <mxGeometry x="160" y="600" width="80" height="60" as="geometry"/>
                </mxCell>
                <mxCell id="52" value="" style="rounded=0;whiteSpace=wrap;html=1;" vertex="1" parent="1">
                    <mxGeometry x="20" y="600" width="20" height="60" as="geometry"/>
                </mxCell>
                <mxCell id="53" value="B" style="shape=process;whiteSpace=wrap;html=1;backgroundOutline=1;size=0.25;" vertex="1" parent="1">
                    <mxGeometry x="260" y="600" width="80" height="60" as="geometry"/>
                </mxCell>
                <mxCell id="54" value="E" style="shape=process;whiteSpace=wrap;html=1;backgroundOutline=1;size=0.25;" vertex="1" parent="1">
                    <mxGeometry x="760" y="600" width="80" height="60" as="geometry"/>
                </mxCell>
                <mxCell id="55" value="" style="rounded=0;whiteSpace=wrap;html=1;" vertex="1" parent="1">
                    <mxGeometry x="860" y="600" width="20" height="60" as="geometry"/>
                </mxCell>
                <mxCell id="56" value="D" style="shape=process;whiteSpace=wrap;html=1;backgroundOutline=1;size=0.25;" vertex="1" parent="1">
                    <mxGeometry x="360" y="600" width="80" height="60" as="geometry"/>
                </mxCell>
                <mxCell id="57" value="F" style="shape=process;whiteSpace=wrap;html=1;backgroundOutline=1;size=0.25;" vertex="1" parent="1">
                    <mxGeometry x="560" y="600" width="80" height="60" as="geometry"/>
                </mxCell>
                <mxCell id="58" value="G" style="shape=process;whiteSpace=wrap;html=1;backgroundOutline=1;size=0.25;" vertex="1" parent="1">
                    <mxGeometry x="460" y="600" width="80" height="60" as="geometry"/>
                </mxCell>
                <mxCell id="60" value="C" style="shape=process;whiteSpace=wrap;html=1;backgroundOutline=1;size=0.25;" vertex="1" parent="1">
                    <mxGeometry x="660" y="600" width="80" height="60" as="geometry"/>
                </mxCell>
                <mxCell id="61" value="I" style="shape=process;whiteSpace=wrap;html=1;backgroundOutline=1;size=0.25;" vertex="1" parent="1">
                    <mxGeometry x="60" y="600" width="80" height="60" as="geometry"/>
                </mxCell>
                <mxCell id="62" value="A" style="shape=process;whiteSpace=wrap;html=1;backgroundOutline=1;size=0.25;" vertex="1" parent="1">
                    <mxGeometry x="160" y="680" width="80" height="60" as="geometry"/>
                </mxCell>
                <mxCell id="63" value="" style="rounded=0;whiteSpace=wrap;html=1;" vertex="1" parent="1">
                    <mxGeometry x="20" y="680" width="20" height="60" as="geometry"/>
                </mxCell>
                <mxCell id="64" value="B" style="shape=process;whiteSpace=wrap;html=1;backgroundOutline=1;size=0.25;" vertex="1" parent="1">
                    <mxGeometry x="260" y="680" width="80" height="60" as="geometry"/>
                </mxCell>
                <mxCell id="66" value="" style="rounded=0;whiteSpace=wrap;html=1;" vertex="1" parent="1">
                    <mxGeometry x="760" y="680" width="20" height="60" as="geometry"/>
                </mxCell>
                <mxCell id="67" value="D" style="shape=process;whiteSpace=wrap;html=1;backgroundOutline=1;size=0.25;" vertex="1" parent="1">
                    <mxGeometry x="360" y="680" width="80" height="60" as="geometry"/>
                </mxCell>
                <mxCell id="68" value="F" style="shape=process;whiteSpace=wrap;html=1;backgroundOutline=1;size=0.25;" vertex="1" parent="1">
                    <mxGeometry x="560" y="680" width="80" height="60" as="geometry"/>
                </mxCell>
                <mxCell id="69" value="G" style="shape=process;whiteSpace=wrap;html=1;backgroundOutline=1;size=0.25;" vertex="1" parent="1">
                    <mxGeometry x="460" y="680" width="80" height="60" as="geometry"/>
                </mxCell>
                <mxCell id="70" value="C" style="shape=process;whiteSpace=wrap;html=1;backgroundOutline=1;size=0.25;" vertex="1" parent="1">
                    <mxGeometry x="660" y="680" width="80" height="60" as="geometry"/>
                </mxCell>
                <mxCell id="71" value="I" style="shape=process;whiteSpace=wrap;html=1;backgroundOutline=1;size=0.25;" vertex="1" parent="1">
                    <mxGeometry x="60" y="680" width="80" height="60" as="geometry"/>
                </mxCell>
                <mxCell id="73" value="" style="rounded=0;whiteSpace=wrap;html=1;" vertex="1" parent="1">
                    <mxGeometry x="20" y="760" width="20" height="60" as="geometry"/>
                </mxCell>
                <mxCell id="74" value="B" style="shape=process;whiteSpace=wrap;html=1;backgroundOutline=1;size=0.25;" vertex="1" parent="1">
                    <mxGeometry x="160" y="760" width="80" height="60" as="geometry"/>
                </mxCell>
                <mxCell id="75" value="" style="rounded=0;whiteSpace=wrap;html=1;" vertex="1" parent="1">
                    <mxGeometry x="660" y="760" width="20" height="60" as="geometry"/>
                </mxCell>
                <mxCell id="76" value="D" style="shape=process;whiteSpace=wrap;html=1;backgroundOutline=1;size=0.25;" vertex="1" parent="1">
                    <mxGeometry x="260" y="760" width="80" height="60" as="geometry"/>
                </mxCell>
                <mxCell id="77" value="F" style="shape=process;whiteSpace=wrap;html=1;backgroundOutline=1;size=0.25;" vertex="1" parent="1">
                    <mxGeometry x="460" y="760" width="80" height="60" as="geometry"/>
                </mxCell>
                <mxCell id="78" value="G" style="shape=process;whiteSpace=wrap;html=1;backgroundOutline=1;size=0.25;" vertex="1" parent="1">
                    <mxGeometry x="360" y="760" width="80" height="60" as="geometry"/>
                </mxCell>
                <mxCell id="79" value="C" style="shape=process;whiteSpace=wrap;html=1;backgroundOutline=1;size=0.25;" vertex="1" parent="1">
                    <mxGeometry x="560" y="760" width="80" height="60" as="geometry"/>
                </mxCell>
                <mxCell id="80" value="I" style="shape=process;whiteSpace=wrap;html=1;backgroundOutline=1;size=0.25;" vertex="1" parent="1">
                    <mxGeometry x="60" y="760" width="80" height="60" as="geometry"/>
                </mxCell>
                <mxCell id="81" value="" style="rounded=0;whiteSpace=wrap;html=1;" vertex="1" parent="1">
                    <mxGeometry x="20" y="840" width="20" height="60" as="geometry"/>
                </mxCell>
                <mxCell id="82" value="B" style="shape=process;whiteSpace=wrap;html=1;backgroundOutline=1;size=0.25;" vertex="1" parent="1">
                    <mxGeometry x="160" y="840" width="80" height="60" as="geometry"/>
                </mxCell>
                <mxCell id="83" value="" style="rounded=0;whiteSpace=wrap;html=1;" vertex="1" parent="1">
                    <mxGeometry x="560" y="840" width="20" height="60" as="geometry"/>
                </mxCell>
                <mxCell id="84" value="D" style="shape=process;whiteSpace=wrap;html=1;backgroundOutline=1;size=0.25;" vertex="1" parent="1">
                    <mxGeometry x="260" y="840" width="80" height="60" as="geometry"/>
                </mxCell>
                <mxCell id="85" value="F" style="shape=process;whiteSpace=wrap;html=1;backgroundOutline=1;size=0.25;" vertex="1" parent="1">
                    <mxGeometry x="460" y="840" width="80" height="60" as="geometry"/>
                </mxCell>
                <mxCell id="86" value="G" style="shape=process;whiteSpace=wrap;html=1;backgroundOutline=1;size=0.25;" vertex="1" parent="1">
                    <mxGeometry x="360" y="840" width="80" height="60" as="geometry"/>
                </mxCell>
                <mxCell id="88" value="I" style="shape=process;whiteSpace=wrap;html=1;backgroundOutline=1;size=0.25;" vertex="1" parent="1">
                    <mxGeometry x="60" y="840" width="80" height="60" as="geometry"/>
                </mxCell>
            </root>
        </mxGraphModel>
    </diagram>
</mxfile>